<?xml version="1.0" encoding="UTF-8" standalone="no"?>
<svg
   width="256"
   height="256"
   viewBox="0 0 256 256"
   version="1.1"
   id="svg1550"
   sodipodi:docname="favicon.svg"
   inkscape:version="1.2.2 (b0a8486541, 2022-12-01)"
   xml:space="preserve"
   xmlns:inkscape="http://www.inkscape.org/namespaces/inkscape"
   xmlns:sodipodi="http://sodipodi.sourceforge.net/DTD/sodipodi-0.dtd"
   xmlns="http://www.w3.org/2000/svg"
   xmlns:svg="http://www.w3.org/2000/svg"><defs
     id="defs1554" /><sodipodi:namedview
     id="namedview1552"
     pagecolor="#ffffff"
     bordercolor="#111111"
     borderopacity="1"
     inkscape:showpageshadow="0"
     inkscape:pageopacity="0"
     inkscape:pagecheckerboard="1"
     inkscape:deskcolor="#d1d1d1"
     showgrid="true"
     inkscape:zoom="2.8284271"
     inkscape:cx="42.072853"
     inkscape:cy="143.71945"
     inkscape:window-width="1920"
     inkscape:window-height="998"
     inkscape:window-x="0"
     inkscape:window-y="0"
     inkscape:window-maximized="1"
     inkscape:current-layer="g312"
     inkscape:document-units="px"><inkscape:grid
       type="xygrid"
       id="grid1673"
       originx="0"
       originy="0" /></sodipodi:namedview><g
     id="g312"><path
       style="fill:#000000"
       d="m 111,127 v -17 h 17.5 17.5 v 17 17 H 128.5 111 Z"
       id="path314" /><path
       style="fill:#fefefe"
       d="m 0,0 c 85.333333,0 170.66667,0 256,0 0,85.333333 0,170.66667 0,256 -85.33333,0 -170.666667,0 -256,0 C 0,170.66667 0,85.333333 0,0 Z m 74,74 h 108 v 108 h -71 c 0,12 0,24 0,36 H 218 V 74 H 182 V 38 H 38 v 180 h 36 z m 72,36 h -35 v 34 h 35 z"
       id="path322"
       sodipodi:nodetypes="ccccccccccccccccccccccc" /><path
       style="fill:#fe4400"
       d="M 38,128 V 38 h 72 72 v 18 18 h 18 18 v 72 72 H 164.5 111 V 200 182 H 146.5 182 V 128 74 H 128 74 v 72 72 H 56 38 Z"
       id="path318" /><path
       style="fill:#0f0f0f"
       d="M 111,144 C 37,48 74,96 111,144 Z"
       id="path316"
       sodipodi:nodetypes="cc" /></g></svg>
