<?xml version="1.0" encoding="UTF-8" standalone="no"?>
<svg
   width="256"
   height="256"
   viewBox="0 0 256 256"
   version="1.1"
   id="svg1550"
   sodipodi:docname="rplace.svg"
   inkscape:version="1.2.2 (b0a8486541, 2022-12-01)"
   xml:space="preserve"
   xmlns:inkscape="http://www.inkscape.org/namespaces/inkscape"
   xmlns:sodipodi="http://sodipodi.sourceforge.net/DTD/sodipodi-0.dtd"
   xmlns="http://www.w3.org/2000/svg"
   xmlns:svg="http://www.w3.org/2000/svg"><defs
     id="defs1554" /><sodipodi:namedview
     id="namedview1552"
     pagecolor="#ffffff"
     bordercolor="#111111"
     borderopacity="1"
     inkscape:showpageshadow="0"
     inkscape:pageopacity="0"
     inkscape:pagecheckerboard="1"
     inkscape:deskcolor="#d1d1d1"
     showgrid="true"
     inkscape:zoom="2.8284271"
     inkscape:cx="102.53048"
     inkscape:cy="168.82174"
     inkscape:window-width="1920"
     inkscape:window-height="998"
     inkscape:window-x="0"
     inkscape:window-y="0"
     inkscape:window-maximized="1"
     inkscape:current-layer="g312"
     inkscape:document-units="px"><inkscape:grid
       type="xygrid"
       id="grid1673"
       originx="0"
       originy="0" /></sodipodi:namedview><g
     id="g312"><path
       style="fill:#fe4400"
       d="m 38,38 c 48,0 96,0 144,0 v 18 18 h 18 18 c 0,48 0,96 0,144 -35.66667,0 -71.33333,0 -107,0 v -18 -18 c 23.66667,0 47.33333,0 71,0 0,-36 0,-72 0,-108 -36,0 -72,0 -108,0 0,48 0,96 0,144 H 56 38 C 38,158 38,98 38,38 Z"
       id="path318"
       sodipodi:nodetypes="ccccccccccccccccc" /><path
       style="fill:#0f0f0f"
       d="M 111,144 C 37,48 74,96 111,144 Z"
       id="path316"
       sodipodi:nodetypes="cc" /><path
       style="fill:#000000"
       d="m 111,127 v -17 h 17.5 17.5 v 17 17 H 128.5 111 Z"
       id="path314" /></g></svg>
