<?xml version="1.0" encoding="UTF-8" standalone="no"?>
<svg
   width="256"
   height="256"
   viewBox="0 0 256 256"
   version="1.1"
   id="svg1550"
   sodipodi:docname="pattern.svg"
   inkscape:version="1.2.2 (732a01da63, 2022-12-09)"
   xml:space="preserve"
   inkscape:export-filename="pattern.png"
   inkscape:export-xdpi="96"
   inkscape:export-ydpi="96"
   xmlns:inkscape="http://www.inkscape.org/namespaces/inkscape"
   xmlns:sodipodi="http://sodipodi.sourceforge.net/DTD/sodipodi-0.dtd"
   xmlns="http://www.w3.org/2000/svg"
   xmlns:svg="http://www.w3.org/2000/svg"><defs
     id="defs1554" /><sodipodi:namedview
     id="namedview1552"
     pagecolor="#ffffff"
     bordercolor="#111111"
     borderopacity="1"
     inkscape:showpageshadow="0"
     inkscape:pageopacity="0"
     inkscape:pagecheckerboard="1"
     inkscape:deskcolor="#d1d1d1"
     showgrid="true"
     inkscape:zoom="2.8284271"
     inkscape:cx="50.027805"
     inkscape:cy="134.88062"
     inkscape:window-width="1920"
     inkscape:window-height="991"
     inkscape:window-x="-9"
     inkscape:window-y="-9"
     inkscape:window-maximized="1"
     inkscape:current-layer="g312"
     inkscape:document-units="px"><inkscape:grid
       type="xygrid"
       id="grid1673"
       originx="0"
       originy="0" /></sodipodi:namedview><g
     id="g312"><path
       style="fill:#7f7f7f;fill-opacity:0.50241548"
       d="M 17.772962,64.36039 C 64.137401,51.937076 110.50184,39.513761 156.86628,27.090447 l 4.65874,17.386665 4.65875,17.386665 17.38666,-4.658743 17.38667,-4.658743 c 12.42331,46.36444 24.84662,92.728879 37.26994,139.093319 -34.45136,9.23121 -68.90271,18.46242 -103.35406,27.69364 l -4.65875,-17.38667 -4.65874,-17.38666 c 22.86025,-6.12539 45.72049,-12.25077 68.58073,-18.37615 C 184.81874,131.41044 175.50125,96.637107 166.18377,61.863777 131.41044,71.181263 96.637107,80.498748 61.863777,89.816234 74.287091,136.18067 86.710405,182.54511 99.133719,228.90955 L 81.747055,233.5683 64.36039,238.22704 C 48.831247,180.27149 33.302104,122.31594 17.772962,64.36039 Z"
       id="path318"
       sodipodi:nodetypes="ccccccccccccccccc" /><path
       style="fill:#0f0f0f"
       d="m 115.72037,147.85474 c -96.325144,-73.576273 -48.162574,-36.78814 0,0 z"
       id="path316"
       sodipodi:nodetypes="cc" /><path
       style="fill:#808080;fill-opacity:0.50241548"
       d="m 111.32044,131.434 -4.39992,-16.42074 16.9037,-4.52933 16.9037,-4.52934 4.39993,16.42074 4.39992,16.42074 -16.9037,4.52933 -16.9037,4.52934 z"
       id="path314" /></g></svg>
